<?xml version="1.0" standalone="no"?>
<!DOCTYPE svg PUBLIC "-//W3C//DTD SVG 20010904//EN"
 "http://www.w3.org/TR/2001/REC-SVG-20010904/DTD/svg10.dtd">
<svg version="1.0" xmlns="http://www.w3.org/2000/svg"
 width="200.000000pt" height="200.000000pt" viewBox="0 0 200.000000 200.000000"
 preserveAspectRatio="xMidYMid meet">
<metadata>
Created by potrace 1.11, written by Peter Selinger 2001-2013
</metadata>
<g transform="translate(0.000000,200.000000) scale(0.100000,-0.100000)"
fill="#000000" stroke="none">
<path d="M888 1886 c-61 -27 -98 -81 -98 -146 0 -120 128 -194 230 -134 98 57
106 190 17 258 -39 30 -107 40 -149 22z m101 -76 c31 -16 46 -65 31 -100 -36
-87 -171 -53 -156 40 9 58 72 89 125 60z"/>
<path d="M1273 1660 c-103 -46 -118 -196 -26 -264 87 -64 215 -20 243 84 35
130 -93 236 -217 180z m125 -83 c33 -30 31 -89 -4 -116 -36 -28 -79 -27 -109
4 -33 32 -34 84 -2 112 38 36 74 36 115 0z"/>
<path d="M495 1646 c-108 -47 -125 -198 -32 -267 47 -35 131 -38 176 -7 47 31
74 80 74 133 0 109 -118 185 -218 141z m116 -85 c29 -30 34 -47 23 -89 -7 -25
-51 -52 -83 -52 -28 0 -70 40 -75 71 -6 34 26 86 56 92 44 8 50 7 79 -22z"/>
<path d="M985 1480 c-37 -41 11 -104 61 -81 50 23 34 101 -21 101 -12 0 -30
-9 -40 -20z"/>
<path d="M824 1465 c-15 -23 -15 -27 0 -50 11 -17 26 -25 44 -25 35 0 52 16
52 50 0 34 -17 50 -52 50 -18 0 -33 -8 -44 -25z"/>
<path d="M1070 1350 c-24 -24 -25 -38 -4 -68 18 -27 55 -29 77 -4 23 26 21 58
-5 76 -30 21 -44 20 -68 -4z"/>
<path d="M761 1346 c-30 -36 -6 -96 39 -96 22 0 50 32 50 57 0 42 -63 70 -89
39z"/>
<path d="M1278 1216 c-134 -71 -97 -273 53 -290 71 -7 150 45 168 111 37 135
-98 244 -221 179z m130 -79 c31 -28 30 -80 -3 -112 -30 -31 -73 -32 -109 -4
-62 49 -8 159 69 141 11 -3 30 -14 43 -25z"/>
<path d="M510 1219 c-135 -56 -131 -247 6 -294 132 -45 250 91 190 217 -31 63
-133 104 -196 77z m120 -97 c23 -28 25 -54 8 -85 -29 -55 -84 -63 -129 -18
-24 25 -28 36 -24 63 10 56 45 79 103 69 12 -2 31 -15 42 -29z"/>
<path d="M858 1223 c-9 -2 -21 -18 -27 -34 -9 -25 -7 -33 9 -49 23 -23 49 -26
72 -7 28 22 29 47 3 73 -24 24 -27 25 -57 17z"/>
<path d="M1004 1222 c-16 -10 -26 -46 -18 -66 19 -50 103 -29 104 26 0 36 -54
61 -86 40z"/>
<path d="M894 981 c-85 -38 -115 -154 -60 -226 75 -98 209 -89 266 18 41 78 8
172 -74 211 -44 21 -81 20 -132 -3z m100 -65 c33 -14 42 -27 51 -76 6 -32 -45
-80 -85 -80 -38 0 -80 41 -80 79 0 41 35 81 78 90 1 1 18 -5 36 -13z"/>
<path d="M741 512 c-18 -34 24 -57 49 -27 10 12 10 18 0 30 -17 20 -37 19 -49
-3z"/>
<path d="M902 318 c3 -205 4 -213 23 -216 20 -3 20 2 19 205 -1 114 -2 211 -3
216 0 4 -10 7 -21 7 -20 0 -20 -5 -18 -212z"/>
<path d="M1385 315 c0 -210 0 -215 21 -215 18 0 20 6 21 60 1 33 2 80 2 104 1
62 32 96 92 103 38 4 50 1 74 -19 28 -24 29 -29 31 -124 1 -54 2 -105 3 -111
1 -7 10 -13 22 -13 20 0 21 4 18 119 -4 109 -6 122 -28 145 -45 48 -129 56
-182 17 -19 -14 -29 -17 -30 -9 -1 7 -1 46 -1 86 -1 67 -2 72 -22 72 -22 0
-22 -1 -21 -215z"/>
<path d="M341 502 c-5 -2 -7 -10 -4 -18 4 -11 31 -14 134 -14 72 0 129 -4 129
-9 0 -5 -4 -11 -8 -13 -18 -7 -263 -321 -259 -332 3 -8 54 -11 168 -11 148 0
164 2 167 18 3 15 -8 17 -132 17 -75 0 -136 2 -136 5 0 8 243 309 253 313 4 2
7 14 7 26 0 21 -2 21 -155 21 -85 0 -159 -1 -164 -3z"/>
<path d="M747 402 c-2 -4 -3 -72 -3 -152 1 -138 2 -145 21 -145 19 0 20 7 20
149 0 134 -2 149 -17 152 -10 1 -19 -1 -21 -4z"/>
<path d="M1111 388 c-108 -53 -106 -220 3 -272 19 -9 51 -16 73 -16 46 0 107
28 111 52 4 23 -20 23 -53 2 -14 -9 -40 -16 -60 -16 -99 0 -149 120 -82 198
32 37 107 45 147 15 16 -11 36 -18 44 -15 38 15 -28 62 -97 69 -31 3 -55 -2
-86 -17z"/>
</g>
</svg>
